<?xml version="1.0" encoding="utf-8"?>
<!-- Generator: Adobe Illustrator 27.0.0, SVG Export Plug-In . SVG Version: 6.00 Build 0)  -->
<svg version="1.1" id="Layer_1" xmlns="http://www.w3.org/2000/svg" xmlns:xlink="http://www.w3.org/1999/xlink" x="0px" y="0px"
	 viewBox="0 0 2093.8 475.1" style="enable-background:new 0 0 2093.8 475.1;" xml:space="preserve">
<style type="text/css">
	.st0{fill:#2FB895;}
	.st1{fill:#B82F53;}
</style>
<g>
	<g>
		<g>
			<path class="st0" d="M1213.5,52.1c-21.4-12.4-48-18.6-79.8-18.6c-31.8,0-60.4,2.9-85.9,8.6c-25.4,5.8-46.8,13.1-64,21.8
				c-17.2,8.9-30.9,18.4-41.1,28.9c-10.2,10.4-15.3,20.2-15.3,29.5c0,9.3,2.3,16.8,6.9,22.5c4.6,5.7,12,8.6,22.1,8.6
				c10.2,0,22.7-5.2,37.5-15.7c0.3-0.3,0.5-0.8,0.6-1.7c0.2-0.9,0.2-2.1,0.2-3.6c0-3-0.3-4.4-1.1-4.4h-0.2
				c-4.3,1.6-7.8,2.4-10.5,2.4c-1.1,0-2.1-0.1-3-0.2c-4.3-0.6-6.4-2.6-6.4-6.1c0-4.2,2.4-8.1,7.1-11.5c13.4-10.4,35-21,64.4-31.8
				c29.5-10.9,54.7-16.2,75.6-16.2c20.9,0,38.7,3.1,53.3,9.2c6.1,2.6,11.1,5.9,15.1,10.1c0,0,0,0,0.1,0c0.8,0.9,1.7,1.8,2.5,2.9
				c3.4,4.3,5.4,9,6.1,14.2c0.2,1.4,0.3,2.9,0.3,4.3c0,6.9-3.9,15.2-11.7,24.9c-7.8,9.7-17.5,18.9-29.2,27.8
				c-11.6,8.9-25.1,16.5-40.4,22.9c-15.4,6.4-29.6,9.6-42.9,9.6h-6.2c-3,0-5.9-0.3-8.5-0.8c-2.6-0.6-4.5-2-5.7-4.3
				c22.7-35.9,40.7-63.6,53.7-83.2c5.8-8.7,10.7-15.7,14.6-21.2c-15.4,1.5-31.4,4-46.2,7.2c-4.5,6.2-11,15.1-19.4,26.9
				c-5,7.2-10.8,15.4-17.3,24.6c-25,35.9-51.7,75.8-79.9,119.9c-28.3,44-42.4,69.4-42.4,76.2c0,5.3,4.2,8,12.7,8h3.6l5.2,0.4
				l10.5-1.9c3.5,0,6.7-1.7,9.7-5c0.2-0.1,1.7-2.6,4.6-7.5c2.9-4.9,7.1-11.6,12.5-20.1c5.4-8.6,11.9-19.1,19.7-31.7
				c7.7-12.5,22.5-36,44.4-70.3c8.9,12.9,21.3,19.3,37.4,19.3s34.3-3.9,54.7-11.6c20.4-7.7,38.9-17.7,55.6-29.8
				c16.7-12.2,30.6-26.4,41.7-42.7c11.1-16.4,16.7-32.4,16.7-48.3S1234.8,64.5,1213.5,52.1z"/>
		</g>
		<g>
			<path class="st0" d="M1352.4,309.4c0-2.9,3.4-11.1,10.4-24.8c-0.1-0.9-0.2-1.7-0.3-2.6c-0.6-4.1-2.2-6.2-5-6.2
				c-1.7,0-3,0.3-3.9,1.1c-0.8,0.7-3.5,3.5-7.8,8.4c-4.4,4.9-8.9,9.6-13.4,14.3c-4.6,4.7-9.9,9-15.7,13.1c-0.5,0.4-1.1,0.7-1.6,1.1
				c-5.2,3.4-9.8,5.1-13.7,5.1c-4.3,0-6.5-4-6.5-11.8c0-2.6,0.2-4.6,0.7-6.1c2.1-11.6,6.9-25.7,14.3-42.1s14.2-29.9,20.2-40.4
				c6.1-10.6,10.1-16.8,12-18.7c1.8-1.8,2.8-4.8,2.8-8.8c0-7.5-5.5-11.2-16.4-11.2c-4.8,0-8.3,0.7-10.7,2.1
				c-2.4,1.3-5.3,4.6-8.7,9.7c-1.3-3.9-4.4-7.1-9.2-9.7c-4.9-2.6-11.2-3.9-18.9-3.9c-20.1,0-42.1,9.4-65.9,28
				c-11.3,8.9-21.7,18.8-31.2,29.6c-9.5,10.8-17.1,22.8-22.9,36c-5.8,13.1-8.7,26.2-8.7,39.2s4,23.1,11.8,30.4
				c6.2,5.9,14.2,8.9,23.9,8.9c9.7,0,22.4-5.4,37.8-16.1c15.4-10.8,29.1-23.9,41-39.4c-2.9,6.4-4.3,13.9-4.3,22.5
				c0,8.6,2.7,16.4,8.2,23.4c5.4,7.1,14,10.5,25.5,10.5c7.4,0,15.3-2.3,23.7-7c4.8-2.6,9.7-6,14.8-10.2c11-9,19.1-17,24-23.9
				c-1.8,0.9-3.4,1.3-4.5,1.3S1352.4,310.5,1352.4,309.4z M1260.7,256.5c-6,7.5-18.2,19.1-36.6,35c-18.4,15.9-29.5,23.8-33.6,23.8
				c-2.9,0-4.3-2.5-4.3-7.6c0-5,3.9-14.3,11.8-28c7.8-13.7,16.4-25.3,25.7-35.1c26.2-27.2,51.7-40.9,76.2-40.9
				C1280.3,230.5,1267.3,248.1,1260.7,256.5z"/>
		</g>
		<g>
			<path class="st0" d="M1510.6,275.9c-1.6,0-3.1,0.6-4.7,1.9c-1.8,1.7-3.6,3.3-5.4,4.9c-6.4,5.8-12.5,11.4-18.5,16.8
				c-28.3,25.4-51,45.4-68.2,59.9c13.5-27.8,38.2-72,74.1-132.6c12.2-20.6,18.9-31.9,20-34.1c1.2-2.2,1.7-4,1.7-5.4
				c0-1.4-0.7-2.9-2.1-4.4c-0.9-0.9-1.7-1.8-2.5-2.8c-0.8-1-3.1-2-7.1-2.8c-4-0.8-6.9-1.3-8.9-1.3c-1.9,0-3.7,0.7-5.3,2.1
				c-1,0.7-2,1.5-2.8,2.2c-0.8,0.7-1.8,1.7-2.9,3.1c-1.1,1.4-2,2.6-2.8,3.6s-1.8,2.4-3,4.2c-1.2,1.8-2.2,3.2-3,4.3
				c-0.8,1.1-1.8,2.6-3.1,4.6c-10.2,15.8-24.3,33.2-42.2,52.3c-16.1,17.2-30.8,31.3-44,42.3c-9.5,7.8-16.6,12.9-21.2,15.1
				c-1.8,0.9-3.4,1.3-4.5,1.3s-1.7-0.6-1.7-1.7c0-2.9,3.4-11.1,10.4-24.8c4.5-8.9,10.4-20.1,17.9-33.6
				c18.8-34.2,28.2-53.4,28.2-57.9c0-4.4-2-8.3-6.1-11.5c-4.1-3.2-7.5-4.9-10-4.9c-2.6,0-5.3,2.3-8.2,6.8c-2.9,4.5-7.1,12-12.5,22.5
				c-5.4,10.5-10.8,19.7-15.9,27.5c-5.5,9.9-11.4,20.2-17.8,30.8c-6.4,10.6-10.9,18.2-13.4,22.6c-5,8.7-8.3,17.6-9.9,26.8
				c-0.7,4.2-1.1,8.5-1.1,12.8c0,7.7,1.9,13.5,5.8,17.3c0.7,0.7,1.5,1.4,2.4,2c5.4,3.6,11,5.5,16.6,5.5h1.5
				c10.9-1.2,22.2-6.4,34.1-15.8c11.7-9.4,24.5-21.6,38.3-36.7c-20.6,39-31.4,59.1-32.3,60.3c-0.8,1.2-5.9,6.4-15.3,15.5
				c-9.3,9.1-17,17.6-23.2,25.5c-16.2,21-24.3,39.3-24.3,54.9c0,13.3,6.6,20,19.8,20c1.1,0,3.8-0.2,7.8-0.7
				c4.1-0.5,9.2-3.8,15.3-9.8c6.1-6.1,11.2-12.4,15.4-19c4.2-6.7,8.1-13.3,11.8-19.8c3.6-6.5,5.8-10.1,6.6-10.9
				c29.2-31.5,60.1-60.7,92.4-87.5c1.1-0.9,2.2-1.8,3.2-2.7c8.4-7,16.9-13.8,25.5-20.4c1-0.9,1.6-2.4,1.9-4.5
				c0.1-0.7,0.2-1.5,0.2-2.3c0.1-0.4,0.1-0.8,0.1-1.2C1517.3,282.6,1515.1,275.9,1510.6,275.9z"/>
		</g>
		<g>
			<path class="st0" d="M1782.8,34.3c-9.9-2.3-21.3-3.5-34.2-3.5c-33.7,0-70.3,8-109.8,23.9c-19,7.7-36.7,16.6-52.8,26.4
				c-16.1,9.9-29.2,21.3-39.3,34c-10,12.8-15.1,26.2-15.1,40.2c0,14,6.3,25.9,19,35.6c12.7,9.7,32.7,17.8,60.1,24.2
				c27.3,6.4,48.2,12.2,62.5,17.5c14.3,5.3,21.5,11,21.5,17.2c0,4.9-4,10.6-12.2,17.3c-8.1,6.6-18.4,12.9-30.8,18.9
				c-12.4,6-27,11.1-43.8,15.3c-16.8,4.1-32.2,6.2-46.2,6.2s-26.8-1.9-38.5-5.7c-2.3-0.8-4.4-1.5-6.3-2.2c-1.8-0.8-3.4-1.6-4.8-2.3
				c-4.3-2.4-6.5-4.9-6.5-7.4l2.8-5.8c0-1.7-1.3-2.6-3.9-2.6c-1.1,0-2.5,0.3-4.3,1.1c-6.4,5.8-12.5,11.4-18.5,16.8
				c-1.2,3-1.8,6.3-1.8,9.9c0,4.8,1.2,9.4,3.6,13.9c0.3,0.5,0.6,1,0.8,1.5c0.5,1,1.1,1.8,1.7,2.7c10.3,14.9,30.6,22.3,61.2,22.3
				c45.7,0,84.9-7.4,118-22.1c15.1-6.6,28.1-14.2,39.3-22.6c11.1-8.5,19.4-17.2,24.9-26.3c5.5-9,8.3-18.7,8.3-29
				c0-10.4-4.4-20.5-13.1-30.6c-3.8-4.1-8.7-8.2-15-12.3c-6.2-4-14.1-8.2-23.6-12.7c-9.5-4.5-28.4-10.4-56.8-17.6
				c-27.4-7.1-44.1-13.8-50.1-20.3c-2.2-2.2-3.2-5.2-3.2-8.7s4.9-9.5,14.7-18.1c9.7-8.5,21.9-17.2,36.6-26.1
				c14.6-8.8,31.9-16.8,51.8-23.8c19.8-7.1,38.5-11,56-12c-5.5,6.9-8.3,11.6-8.3,14.2c0,2.6,0.4,4.5,1.3,5.6
				c0.8,1.2,1.6,1.7,2.2,1.7c0.6,0,1.4-0.3,2.2-0.9c0.9-0.6,6.2-1.1,16-1.5c28.2-1.3,45.5-4.6,51.9-9.9c0.6-0.4,1.5-1.1,2.7-2
				c1.2-0.8,2.2-1.7,3-2.6c0.8-0.8,1.8-2.6,3.1-5.3c1.3-2.6,2-7.6,2-15S1801.8,38.8,1782.8,34.3z"/>
		</g>
		<g>
			<path class="st0" d="M1902.2,185.2c-4.5-3.9-8.9-5.8-13.2-5.8c-4.3,0-7.5,0.2-9.5,0.4v-1.3c0-1-0.7-2.1-2.2-3.4
				c-4-3.9-10-5.8-17.8-5.8c-17.6,0-38.2,9.4-61.6,28.2c-11.2,9.2-21.6,19.6-31.2,31.1c-9.6,11.5-17.5,24.9-23.6,39.9
				c-6.1,15.1-9.1,28.8-9.1,41.2c0,12.4,3.3,22.1,10,29c6.7,6.9,15.6,10.5,26.6,10.5c11,0,23.4-3.7,36.9-11.1
				c13.6-7.4,26.2-16.9,37.9-28.4c11.7-11.6,22.4-23.9,32.2-37c9.7-13.2,17.4-26.1,23-38.8c5.6-12.7,8.4-23,8.4-31
				S1906.8,189.1,1902.2,185.2z M1861.8,235.2c-5.7,10.6-14.2,23-25.6,37.4c-11.4,14.3-22.9,25.4-34.6,33.2
				c-11.6,7.7-20.4,11.6-26.3,11.6c-5.9,0-8.8-4-8.8-12c0.3-16.2,9.6-36.1,28-59.6c9.1-11.8,19.3-22,30.8-30.6
				c11.5-8.6,22.5-14.6,32.9-18.1c0,7.3,2.5,11,7.6,11h1.5c2,0,3,1.9,3,5.7C1870.3,217.5,1867.4,224.7,1861.8,235.2z"/>
		</g>
		<g>
			<path class="st0" d="M2085.9,26.5c-5.3-4.1-11.3-6.2-18.2-6.2c-22.4,0-54.7,30-97.1,90c-18.8,26.6-35.7,58.7-50.6,96.5
				c-15,37.8-22.5,70.7-22.5,98.7c0,14.3,3.5,25.7,10.5,33.9c7.1,8.2,17.3,12.4,30.8,12.4c13.4,0,27.7-3.6,42.8-10.9
				c15.1-7.3,28.6-18.3,40.7-33.1c2-2.6,3-6.7,3-12.3v-4.3c0-10.5-1.7-15.7-5.2-15.7c-3.4,0-12.3,7.4-26.7,22.1
				c-5.5,5.6-11.9,10.7-19.3,15.3s-14.3,6.9-20.8,6.9c-6.4,0-11.9-1.9-16.2-5.7c-4.4-3.8-6.6-8.1-6.6-12.8c0-4.8,0.5-9.5,1.6-14.1
				c1.1-4.7,1.7-7.8,1.8-9.6c23-25.4,46.9-54,71.9-85.9c15.8-20.1,29.9-39,42.4-56.9c12.5-17.9,23.2-35.4,32.1-52.5
				c8.9-17.1,13.3-29.7,13.3-37.8C2093.8,36.6,2091.1,30.6,2085.9,26.5z M2013.2,135c-29.9,42.5-53.3,73.8-70.3,94
				c8.5-25.8,17.5-47.3,27-64.4s25-39.9,46.4-68.6c21.3-28.7,34.6-43.1,39.6-43.1c1.4,0,2.1,1.1,2.1,3.2
				C2058,66.1,2043.1,92.4,2013.2,135z"/>
		</g>
	</g>
	<g>
		<g>
			<path class="st0" d="M555.3,0c-56.6,0-108.1,22.3-146,58.5c17,21.9,30.4,46.7,39.3,73.4c24.3-32.5,63.1-53.6,106.7-53.6
				c73.3,0,132.9,59.7,132.9,132.9c0,73.3-59.7,133-132.9,133c-43.6,0-82.4-21.1-106.7-53.6c-9,26.8-22.4,51.5-39.3,73.4
				c37.9,36.3,89.4,58.5,145.9,58.5c116.8,0,211.4-94.7,211.4-211.4C766.7,94.7,672.1,0,555.3,0z"/>
		</g>
		<g>
			<path class="st1" d="M422.3,211.4c0,3.5-0.1,7-0.3,10.4c-0.1,1.2-0.1,2.3-0.2,3.4c-0.4,7.6-1.3,15.1-2.6,22.5
				c-0.5,3-1.1,5.9-1.7,8.8c-0.3,1.7-0.7,3.5-1.2,5.2c-1.1,4.6-2.4,9.2-3.8,13.6h-0.1c-2.4,7.7-5.3,15.2-8.5,22.6
				c-0.6,1.4-1.2,2.7-1.9,4.1c-0.8,1.6-1.5,3.2-2.4,4.8c-1.2,2.4-2.4,4.8-3.8,7.1c-1.1,2.1-2.4,4.2-3.6,6.3
				c-1.1,1.8-2.2,3.6-3.3,5.4h-0.1c-1.8,2.9-3.8,5.8-5.8,8.6c-2-2.8-4-5.7-5.8-8.6h-0.1c-0.4-0.7-0.9-1.4-1.3-2.1
				c-0.8-1.3-1.7-2.6-2.4-4c-1.2-2-2.4-3.9-3.4-5.9c-0.9-1.6-1.7-3.2-2.5-4.8c-0.9-1.5-1.6-3.1-2.4-4.6c-1-2-1.9-4-2.8-6.1
				c-3.3-7.3-6.2-14.8-8.6-22.6c-1.5-4.5-2.7-9.1-3.9-13.7c-0.5-2.2-1-4.3-1.5-6.5c-0.1-0.2-0.1-0.3-0.1-0.6
				c-0.4-2.2-0.9-4.5-1.3-6.8h0.1c-1.3-7.4-2.4-14.8-2.8-22.5l-0.2-1.8c-0.1-0.6-0.1-1.2-0.1-1.8c-0.3-5.8-0.4-11.6-0.1-17.4
				c0.1-2.2,0.2-4.3,0.3-6.5c0.4-7.6,1.3-15.1,2.6-22.5c0.3-1.8,0.6-3.6,1-5.4c0.4-2.3,1-4.6,1.5-6.8c0.1-0.5,0.3-1.1,0.4-1.6
				c0.6-2.5,1.3-5,2-7.5c0.6-2.1,1.2-4.1,1.8-6.2c2.4-7.7,5.3-15.3,8.6-22.6c0.9-2,1.8-4,2.8-6.1c1.5-2.9,2.9-5.8,4.5-8.7
				c0.9-1.7,1.8-3.3,2.8-5c0.3-0.4,0.6-1,0.8-1.4c1.3-2.1,2.6-4.3,4-6.4c1.8-2.9,3.8-5.8,5.8-8.6c2,2.8,4,5.7,5.8,8.6h0.1
				c1.1,1.8,2.2,3.6,3.4,5.4c1,1.7,2,3.4,2.9,5c0.3,0.4,0.6,1,0.8,1.5c1.3,2.2,2.5,4.5,3.6,6.8c0.8,1.6,1.6,3.1,2.4,4.8
				c0.7,1.3,1.3,2.7,1.9,4.1c3,6.6,5.6,13.4,7.9,20.4v0.1c0.1,0.2,0.1,0.3,0.2,0.5c0.8,2.6,1.6,5.2,2.4,7.8c0.7,2.4,1.3,4.9,2,7.3
				c1.1,4.6,2.1,9.3,2.9,14.1c1.3,7.4,2.2,14.9,2.6,22.5c0.1,1.1,0.2,2.1,0.2,3.2C422.2,204.3,422.3,207.9,422.3,211.4z"/>
		</g>
		<g>
			<path class="st0" d="M310,24.7H111.9C141.4,8.9,175.1,0,210.9,0S280.5,8.9,310,24.7z"/>
		</g>
		<g>
			<path class="st0" d="M344,47.2c4.4,3.5,8.6,7.3,12.7,11.2c-4.1,5.3-8,10.8-11.6,16.4H49.6c8.6-10,18-19.3,28.2-27.6H344z"/>
		</g>
		<g>
			<path class="st0" d="M32.9,97.4h299.2c-4.6,9-8.6,18.2-12,27.6H18C22.2,115.4,27.3,106.2,32.9,97.4z"/>
		</g>
		<g>
			<path class="st0" d="M2.7,175.1c1.6-9.4,3.9-18.6,6.7-27.6h303.5c-2.4,9.1-4.3,18.3-5.6,27.6H2.7L2.7,175.1z"/>
		</g>
		<g>
			<path class="st0" d="M348,169.7c-0.4,1.8-0.7,3.6-1,5.4H347C347.3,173.3,347.6,171.5,348,169.7z"/>
		</g>
		<g>
			<path class="st0" d="M111.8,398.2H310c-29.5,15.7-63.3,24.7-99.1,24.7S141.3,413.9,111.8,398.2z"/>
		</g>
		<g>
			<path class="st0" d="M345.2,348c3.5,5.6,7.4,11,11.5,16.4c-4.1,3.9-8.3,7.7-12.7,11.2H77.8C67.6,367.3,58.2,358,49.6,348H345.2z"
				/>
		</g>
		<g>
			<path class="st0" d="M320.1,297.9c3.4,9.4,7.5,18.6,12,27.6H32.9c-5.6-8.7-10.6-18-14.9-27.6H320.1z"/>
		</g>
		<g>
			<path class="st0" d="M2.7,247.7h304.8c1.3,9.3,3.2,18.5,5.6,27.6H9.4C6.6,266.4,4.3,257.1,2.7,247.7L2.7,247.7z"/>
		</g>
		<g>
			<path class="st0" d="M0,197.6h305.2c-0.5,9.2-0.5,18.4,0,27.6H0V197.6z"/>
		</g>
		<g>
			<path class="st0" d="M344.4,225.2L344.4,225.2c-0.1-0.6-0.1-1.2-0.2-1.8L344.4,225.2z"/>
		</g>
		<g>
			<path class="st0" d="M422,221.8c-0.1,1.2-0.1,2.3-0.2,3.4h-0.1C421.9,224.1,422,223,422,221.8z"/>
		</g>
		<g>
			<path class="st0" d="M422,200.9c-0.1-1.1-0.1-2.2-0.2-3.2h0.1C421.9,198.7,422,199.8,422,200.9z"/>
		</g>
	</g>
</g>
</svg>
