<?xml version="1.0" encoding="utf-8"?>
<!-- Generator: Adobe Illustrator 27.0.0, SVG Export Plug-In . SVG Version: 6.00 Build 0)  -->
<svg version="1.1" id="Layer_1" xmlns="http://www.w3.org/2000/svg" xmlns:xlink="http://www.w3.org/1999/xlink" x="0px" y="0px"
	 viewBox="0 0 225 225" style="enable-background:new 0 0 225 225;" xml:space="preserve">
<style type="text/css">
	.st0{fill:#2FB895;}
	.st1{fill:#B82F53;}
</style>
<g>
	<g>
		<path class="st0" d="M162.7,62.9c-16.6,0-31.7,6.5-42.8,17.1c5,6.4,8.9,13.7,11.5,21.5c7.1-9.5,18.5-15.7,31.2-15.7
			c21.5,0,38.9,17.5,38.9,38.9c0,21.5-17.5,39-38.9,39c-12.8,0-24.1-6.2-31.2-15.7c-2.6,7.8-6.5,15.1-11.5,21.5
			c11.1,10.6,26.2,17.1,42.7,17.1c34.2,0,61.9-27.7,61.9-61.9C224.6,90.7,196.9,62.9,162.7,62.9z"/>
	</g>
	<g>
		<path class="st1" d="M123.7,124.9c0,1,0,2.1-0.1,3.1c0,0.3,0,0.7-0.1,1c-0.1,2.2-0.4,4.4-0.8,6.6c-0.1,0.9-0.3,1.7-0.5,2.6
			c-0.1,0.5-0.2,1-0.3,1.5c-0.3,1.3-0.7,2.7-1.1,4h0c-0.7,2.3-1.5,4.5-2.5,6.6c-0.2,0.4-0.4,0.8-0.6,1.2c-0.2,0.5-0.4,0.9-0.7,1.4
			c-0.3,0.7-0.7,1.4-1.1,2.1c-0.3,0.6-0.7,1.2-1.1,1.8c-0.3,0.5-0.6,1.1-1,1.6h0c-0.5,0.9-1.1,1.7-1.7,2.5c-0.6-0.8-1.2-1.7-1.7-2.5
			h0c-0.1-0.2-0.3-0.4-0.4-0.6c-0.2-0.4-0.5-0.8-0.7-1.2c-0.4-0.6-0.7-1.1-1-1.7c-0.3-0.5-0.5-0.9-0.7-1.4c-0.3-0.4-0.5-0.9-0.7-1.4
			c-0.3-0.6-0.6-1.2-0.8-1.8c-1-2.1-1.8-4.3-2.5-6.6c-0.4-1.3-0.8-2.7-1.1-4c-0.1-0.6-0.3-1.3-0.4-1.9c0,0,0-0.1,0-0.2
			c-0.1-0.7-0.3-1.3-0.4-2h0c-0.4-2.2-0.7-4.3-0.8-6.6l0-0.5c0-0.2,0-0.4,0-0.5c-0.1-1.7-0.1-3.4,0-5.1c0-0.6,0-1.3,0.1-1.9
			c0.1-2.2,0.4-4.4,0.8-6.6c0.1-0.5,0.2-1.1,0.3-1.6c0.1-0.7,0.3-1.3,0.4-2c0-0.1,0.1-0.3,0.1-0.5c0.2-0.7,0.4-1.5,0.6-2.2
			c0.2-0.6,0.3-1.2,0.5-1.8c0.7-2.3,1.6-4.5,2.5-6.6c0.3-0.6,0.5-1.2,0.8-1.8c0.4-0.9,0.9-1.7,1.3-2.6c0.3-0.5,0.5-1,0.8-1.5
			c0.1-0.1,0.2-0.3,0.2-0.4c0.4-0.6,0.8-1.2,1.2-1.9c0.5-0.9,1.1-1.7,1.7-2.5c0.6,0.8,1.2,1.7,1.7,2.5h0c0.3,0.5,0.7,1.1,1,1.6
			c0.3,0.5,0.6,1,0.9,1.5c0.1,0.1,0.2,0.3,0.2,0.4c0.4,0.7,0.7,1.3,1.1,2c0.2,0.5,0.5,0.9,0.7,1.4c0.2,0.4,0.4,0.8,0.6,1.2
			c0.9,1.9,1.6,3.9,2.3,6v0c0,0,0,0.1,0,0.1c0.2,0.8,0.5,1.5,0.7,2.3c0.2,0.7,0.4,1.4,0.6,2.1c0.3,1.3,0.6,2.7,0.9,4.1
			c0.4,2.2,0.6,4.4,0.8,6.6c0,0.3,0,0.6,0.1,1C123.7,122.8,123.7,123.8,123.7,124.9z"/>
	</g>
	<g>
		<path class="st0" d="M90.8,70.2h-58c8.6-4.6,18.5-7.2,29-7.2S82.1,65.5,90.8,70.2z"/>
	</g>
	<g>
		<path class="st0" d="M100.8,76.8c1.3,1,2.5,2.1,3.7,3.3c-1.2,1.6-2.3,3.2-3.4,4.8H14.5c2.5-2.9,5.3-5.6,8.3-8.1H100.8z"/>
	</g>
	<g>
		<path class="st0" d="M9.6,91.5h87.6c-1.3,2.6-2.5,5.3-3.5,8.1H5.3C6.5,96.7,8,94,9.6,91.5z"/>
	</g>
	<g>
		<path class="st0" d="M0.8,114.2c0.5-2.8,1.1-5.4,2-8.1h88.9c-0.7,2.7-1.2,5.4-1.6,8.1H0.8L0.8,114.2z"/>
	</g>
	<g>
		<path class="st0" d="M101.9,112.6c-0.1,0.5-0.2,1.1-0.3,1.6h0C101.7,113.7,101.8,113.2,101.9,112.6z"/>
	</g>
	<g>
		<path class="st0" d="M32.8,179.6h58.1c-8.6,4.6-18.5,7.2-29,7.2S41.4,184.2,32.8,179.6z"/>
	</g>
	<g>
		<path class="st0" d="M101.1,164.9c1,1.6,2.2,3.2,3.4,4.8c-1.2,1.1-2.4,2.2-3.7,3.3h-78c-3-2.4-5.8-5.1-8.3-8.1H101.1z"/>
	</g>
	<g>
		<path class="st0" d="M93.8,150.2c1,2.8,2.2,5.4,3.5,8.1H9.6c-1.6-2.6-3.1-5.3-4.4-8.1H93.8z"/>
	</g>
	<g>
		<path class="st0" d="M0.8,135.5h89.3c0.4,2.7,0.9,5.4,1.6,8.1H2.8C1.9,141,1.3,138.3,0.8,135.5L0.8,135.5z"/>
	</g>
	<g>
		<path class="st0" d="M0,120.8h89.4c-0.1,2.7-0.1,5.4,0,8.1H0V120.8z"/>
	</g>
	<g>
		<path class="st0" d="M100.9,128.9L100.9,128.9c0-0.2,0-0.4,0-0.5L100.9,128.9z"/>
	</g>
	<g>
		<path class="st0" d="M123.6,127.9c0,0.3,0,0.7,0,1h0C123.6,128.6,123.6,128.3,123.6,127.9z"/>
	</g>
	<g>
		<path class="st0" d="M123.6,121.8c0-0.3,0-0.6-0.1-1h0C123.6,121.1,123.6,121.5,123.6,121.8z"/>
	</g>
</g>
</svg>
