<?xml version="1.0" encoding="utf-8"?>
<!-- Generator: Adobe Illustrator 27.0.0, SVG Export Plug-In . SVG Version: 6.00 Build 0)  -->
<svg version="1.1" id="Layer_1" xmlns="http://www.w3.org/2000/svg" xmlns:xlink="http://www.w3.org/1999/xlink" x="0px" y="0px"
	 viewBox="0 0 225 225" style="enable-background:new 0 0 225 225;" xml:space="preserve">
<style type="text/css">
	.st0{fill:#2FB895;}
	.st1{fill:#B82F53;}
</style>
<g>
	<g>
		<path class="st0" d="M163.5,50.5c-16.5,0-31.5,6.5-42.5,17c4.9,6.4,8.8,13.6,11.4,21.4c7.1-9.5,18.3-15.6,31-15.6
			c21.3,0,38.7,17.4,38.7,38.7c0,21.3-17.4,38.7-38.7,38.7c-12.7,0-24-6.1-31-15.6c-2.6,7.8-6.5,15-11.4,21.4c11,10.6,26,17,42.4,17
			c34,0,61.5-27.5,61.5-61.5C225,78.1,197.5,50.5,163.5,50.5z"/>
	</g>
	<g>
		<path class="st1" d="M124.8,112c0,1,0,2-0.1,3c0,0.3,0,0.7-0.1,1c-0.1,2.2-0.4,4.4-0.8,6.6c-0.1,0.9-0.3,1.7-0.5,2.6
			c-0.1,0.5-0.2,1-0.3,1.5c-0.3,1.3-0.7,2.7-1.1,4h0c-0.7,2.2-1.5,4.4-2.5,6.6c-0.2,0.4-0.4,0.8-0.6,1.2c-0.2,0.5-0.4,0.9-0.7,1.4
			c-0.3,0.7-0.7,1.4-1.1,2.1c-0.3,0.6-0.7,1.2-1,1.8c-0.3,0.5-0.6,1-1,1.6h0c-0.5,0.8-1.1,1.7-1.7,2.5c-0.6-0.8-1.2-1.7-1.7-2.5h0
			c-0.1-0.2-0.3-0.4-0.4-0.6c-0.2-0.4-0.5-0.8-0.7-1.2c-0.4-0.6-0.7-1.1-1-1.7c-0.3-0.5-0.5-0.9-0.7-1.4c-0.3-0.4-0.5-0.9-0.7-1.4
			c-0.3-0.6-0.6-1.2-0.8-1.8c-1-2.1-1.8-4.3-2.5-6.6c-0.4-1.3-0.8-2.6-1.1-4c-0.1-0.6-0.3-1.3-0.4-1.9c0,0,0-0.1,0-0.2
			c-0.1-0.7-0.3-1.3-0.4-2h0c-0.4-2.2-0.7-4.3-0.8-6.6l0-0.5c0-0.2,0-0.4,0-0.5c-0.1-1.7-0.1-3.4,0-5.1c0-0.6,0-1.3,0.1-1.9
			c0.1-2.2,0.4-4.4,0.8-6.6c0.1-0.5,0.2-1.1,0.3-1.6c0.1-0.7,0.3-1.3,0.4-2c0-0.1,0.1-0.3,0.1-0.5c0.2-0.7,0.4-1.5,0.6-2.2
			c0.2-0.6,0.3-1.2,0.5-1.8c0.7-2.2,1.5-4.4,2.5-6.6c0.3-0.6,0.5-1.2,0.8-1.8c0.4-0.8,0.8-1.7,1.3-2.5c0.3-0.5,0.5-1,0.8-1.5
			c0.1-0.1,0.2-0.3,0.2-0.4c0.4-0.6,0.8-1.2,1.2-1.9c0.5-0.8,1.1-1.7,1.7-2.5c0.6,0.8,1.2,1.7,1.7,2.5h0c0.3,0.5,0.7,1,1,1.6
			c0.3,0.5,0.6,1,0.8,1.5c0.1,0.1,0.2,0.3,0.2,0.4c0.4,0.7,0.7,1.3,1,2c0.2,0.5,0.5,0.9,0.7,1.4c0.2,0.4,0.4,0.8,0.6,1.2
			c0.9,1.9,1.6,3.9,2.3,5.9v0c0,0,0,0.1,0,0.1c0.2,0.7,0.5,1.5,0.7,2.3c0.2,0.7,0.4,1.4,0.6,2.1c0.3,1.3,0.6,2.7,0.8,4.1
			c0.4,2.2,0.6,4.3,0.8,6.6c0,0.3,0,0.6,0.1,0.9C124.8,109.9,124.8,111,124.8,112z"/>
	</g>
	<g>
		<path class="st0" d="M92.2,57.7H34.5c8.6-4.6,18.4-7.2,28.8-7.2S83.6,53.1,92.2,57.7z"/>
	</g>
	<g>
		<path class="st0" d="M102.1,64.2c1.3,1,2.5,2.1,3.7,3.3c-1.2,1.5-2.3,3.1-3.4,4.8h-86c2.5-2.9,5.2-5.6,8.2-8H102.1z"/>
	</g>
	<g>
		<path class="st0" d="M11.6,78.8h87c-1.3,2.6-2.5,5.3-3.5,8H7.2C8.5,84.1,9.9,81.4,11.6,78.8z"/>
	</g>
	<g>
		<path class="st0" d="M2.8,101.4c0.5-2.7,1.1-5.4,2-8H93c-0.7,2.7-1.2,5.3-1.6,8H2.8L2.8,101.4z"/>
	</g>
	<g>
		<path class="st0" d="M103.2,99.9c-0.1,0.5-0.2,1.1-0.3,1.6h0C103,100.9,103.1,100.4,103.2,99.9z"/>
	</g>
	<g>
		<path class="st0" d="M34.5,166.3h57.7c-8.6,4.6-18.4,7.2-28.8,7.2S43.1,170.9,34.5,166.3z"/>
	</g>
	<g>
		<path class="st0" d="M102.4,151.7c1,1.6,2.2,3.2,3.4,4.8c-1.2,1.1-2.4,2.2-3.7,3.3H24.6c-3-2.4-5.7-5.1-8.2-8H102.4z"/>
	</g>
	<g>
		<path class="st0" d="M95.1,137.1c1,2.7,2.2,5.4,3.5,8H11.6c-1.6-2.5-3.1-5.2-4.3-8H95.1z"/>
	</g>
	<g>
		<path class="st0" d="M2.8,122.6h88.6c0.4,2.7,0.9,5.4,1.6,8H4.7C3.9,128,3.2,125.3,2.8,122.6L2.8,122.6z"/>
	</g>
	<g>
		<path class="st0" d="M2,108h88.8c-0.1,2.7-0.1,5.4,0,8H2V108z"/>
	</g>
	<g>
		<path class="st0" d="M102.2,116L102.2,116c0-0.2,0-0.4,0-0.5L102.2,116z"/>
	</g>
	<g>
		<path class="st0" d="M124.8,115c0,0.3,0,0.7,0,1h0C124.7,115.7,124.7,115.4,124.8,115z"/>
	</g>
	<g>
		<path class="st0" d="M124.8,108.9c0-0.3,0-0.6-0.1-0.9h0C124.7,108.3,124.7,108.6,124.8,108.9z"/>
	</g>
</g>
</svg>
